PathFileType	4	(x/y/z)	S06_M20_T25
DataRate	CameraRate	NumFrames	NumMarkers	Units	OrigDataRate	OrigDataStartFrame	OrigNumFrames
240	240	6	51	mm	240	124	492
Frame#	Time	Sternum			R.Acromium			L.Acromium			Top.Head			R.ASIS			L.ASIS			R.PSIS			L.PSIS			R.Great.Tro			L.Great.Tro			R.Iliac.Crest			L.Iliac.Crest			V.Sacral			R.Thigh.Upper.Post			R.Thigh.Lower.Ant			R.Thigh.Lower.Post			R.Thigh.Upper.Ant			R.Knee.Lat			R.Knee.Med			R.Shank.Upper.Post			R.Shank.Lower.Ant			R.Shank.Lower.Post			R.Shank.Upper.Ant			R.Ankle.Lat			R.Ankle.Med			R.Heel.Upper			R.Heel.Med			R.Heel.Lat			R.Toe.Lat			R.Toe.Med			R.Toe.Tip			L.Thigh.Upper.Post			L.Thigh.Lower.Ant			L.Thigh.Lower.Post			L.Thigh.Upper.Ant			L.Knee.Lat			L.Knee.Med			L.Shank.Upper.Post			L.Shank.Lower.Ant			L.Shank.Lower.Post			L.Shank.Upper.Ant			L.Ankle.Lat			L.Ankle.Med			L.Heel.Upper			L.Heel.Med			L.Heel.Lat			L.Toe.Lat			L.Toe.Med			L.Toe.Tip			Cervical.Spine			Back			
		X1	Y1	Z1	X2	Y2	Z2	X3	Y3	Z3	X4	Y4	Z4	X5	Y5	Z5	X6	Y6	Z6	X7	Y7	Z7	X8	Y8	Z8	X9	Y9	Z9	X10	Y10	Z10	X11	Y11	Z11	X12	Y12	Z12	X13	Y13	Z13	X14	Y14	Z14	X15	Y15	Z15	X16	Y16	Z16	X17	Y17	Z17	X18	Y18	Z18	X19	Y19	Z19	X20	Y20	Z20	X21	Y21	Z21	X22	Y22	Z22	X23	Y23	Z23	X24	Y24	Z24	X25	Y25	Z25	X26	Y26	Z26	X27	Y27	Z27	X28	Y28	Z28	X29	Y29	Z29	X30	Y30	Z30	X31	Y31	Z31	X32	Y32	Z32	X33	Y33	Z33	X34	Y34	Z34	X35	Y35	Z35	X36	Y36	Z36	X37	Y37	Z37	X38	Y38	Z38	X39	Y39	Z39	X40	Y40	Z40	X41	Y41	Z41	X42	Y42	Z42	X43	Y43	Z43	X44	Y44	Z44	X45	Y45	Z45	X46	Y46	Z46	X47	Y47	Z47	X48	Y48	Z48	X49	Y49	Z49	X50	Y50	Z50	X51	Y51	Z51	

124	0.5125	-906.24	1280.9	284.73	-1047	1486.3	442.69	-1029.8	1485.3	92.684	-967.58	1800.5	267.3	-951.83	1046.2	404.78	-927.79	1043.4	152.2	-1141.3	1059.7	298.59	-1141.4	1068.4	218.76	-1002	968.12	450.68	-1034.3	975.93	92.987	-1048.7	1115.9	431.4	-1001.8	1116.6	112.32	-1156.8	1029.9	259.89	-909.81	737.11	446.73	-829.41	683.09	409.78	-889.46	651.85	426.52	-848.69	771.46	422.43	-826.09	560.88	416.19	-821.73	561.3	287.29	-816.9	332.51	420.65	-742.46	283.6	406.01	-802.66	256.39	408.78	-758.48	358.19	416.13	-736.84	132.54	389.59	-719.76	147.44	307.51	-778.84	68.937	337.46	-755.77	46.553	307.09	-760.86	40.021	371.07	-595.93	92.801	423.43	-570.96	121.95	309.76	-519.47	157.04	360.5	-1046.3	720	127.07	-1016.7	630	184.26	-1085.8	640.14	147.65	-981.46	715.86	159.66	-1133.2	549.77	166.94	-1101.1	552.77	285.87	-1228.8	333.4	192.65	-1175.9	261.3	191.76	-1246.1	264	213.36	-1163.4	329.63	176.33	-1225.6	119.09	216.85	-1205.3	136.45	302	-1306.9	86.158	266.22	-1301.4	55.331	295.71	-1302.9	62.723	234.2	-1127.4	46.546	186.42	-1101.6	40.154	304.41	-1030.3	45.062	246.73	-1089.8	1539.9	265.89	-1151.9	1266	260.45
125	0.51667	-900.81	1280.2	284.95	-1041.6	1485.6	443	-1024.3	1484.6	92.98	-962.05	1799.8	267.74	-946.35	1045.4	404.85	-922.62	1042.6	152.24	-1135.7	1059.1	298.94	-1135.6	1067.7	219.17	-996.63	967.38	450.81	-1029.5	975.37	93.135	-1043.2	1115.2	431.6	-996.62	1115.9	112.47	-1151.3	1029.3	260.25	-905.85	735.95	446.58	-825.3	681.7	409.56	-885.51	650.62	426.12	-844.28	770.04	422.42	-822.12	559.74	415.62	-817.43	560.38	286.63	-809.04	331.48	419.55	-733.6	283.95	405.18	-793.32	255.66	407.5	-751.07	358.25	415.43	-724.97	132.97	388.38	-707.66	148.56	306.45	-765.29	68.667	335.75	-741.62	46.96	305.33	-746.89	39.892	369.26	-583.33	95.708	422.69	-558.47	126.27	309.42	-507.9	162.11	360.65	-1042.6	719.66	127.09	-1013.2	629.43	184.07	-1082.4	639.96	147.71	-977.69	715.19	159.46	-1130.2	549.78	167.06	-1097.8	552.54	285.88	-1227.1	333.93	192.85	-1174.7	261.5	191.9	-1244.8	264.64	213.53	-1161.7	329.77	176.47	-1225.2	119.57	216.97	-1204.6	136.84	302.11	-1306.8	86.952	266.34	-1301.2	56.027	295.83	-1302.7	63.438	234.32	-1127.3	46.589	186.47	-1101.4	40.187	304.41	-1030.1	44.939	246.72	-1084.4	1539.3	266.19	-1146.4	1265.3	260.68
126	0.52083	-895.36	1279.4	285.16	-1036.1	1484.9	443.32	-1018.7	1484	93.285	-956.49	1799.2	268.18	-940.85	1044.6	404.92	-917.44	1041.8	152.26	-1130.1	1058.5	299.29	-1129.9	1067	219.59	-991.26	966.64	450.94	-1024.6	974.82	93.288	-1037.7	1114.6	431.79	-991.46	1115.2	112.63	-1145.8	1028.6	260.62	-902	734.79	446.41	-821.23	680.27	409.36	-881.62	649.37	425.68	-839.91	768.6	422.43	-818.24	558.57	415.05	-813.17	559.45	285.95	-801.35	330.49	418.44	-724.94	284.31	404.33	-784.19	254.98	406.21	-743.83	358.29	414.71	-713.4	133.47	387.17	-695.87	149.73	305.39	-752.06	68.505	334.03	-727.8	47.474	303.56	-733.25	39.875	367.45	-571.12	98.647	422	-546.34	130.58	309.13	-496.72	167.13	360.86	-1038.9	719.34	127.13	-1009.8	628.89	183.88	-1078.9	639.79	147.78	-973.88	714.54	159.26	-1127.1	549.82	167.18	-1094.4	552.3	285.9	-1225.3	334.47	193.06	-1173.4	261.73	192.04	-1243.4	265.31	213.69	-1159.9	329.92	176.61	-1224.7	120.09	217.07	-1204	137.27	302.2	-1306.6	87.806	266.45	-1300.9	56.787	295.95	-1302.4	64.214	234.44	-1127.2	46.634	186.51	-1101.3	40.23	304.41	-1030	44.821	246.7	-1078.9	1538.7	266.51	-1140.9	1264.7	260.93
127	0.525	-889.9	1278.7	285.36	-1030.6	1484.1	443.65	-1013.2	1483.4	93.598	-950.93	1798.5	268.64	-935.31	1043.9	404.97	-912.23	1041.1	152.29	-1124.6	1057.9	299.65	-1124.1	1066.3	220.02	-985.87	965.92	451.07	-1019.7	974.26	93.446	-1032.2	1113.9	432	-986.29	1114.5	112.79	-1140.2	1028	261.01	-898.23	733.62	446.22	-817.2	678.83	409.16	-877.78	648.1	425.21	-835.57	767.12	422.46	-814.41	557.38	414.47	-808.93	558.53	285.25	-793.82	329.53	417.33	-716.5	284.66	403.46	-775.27	254.34	404.9	-736.76	358.33	413.97	-702.15	134.01	385.95	-684.38	150.93	304.33	-739.17	68.436	332.3	-714.33	48.077	301.8	-719.96	39.957	365.64	-559.29	101.59	421.36	-534.59	134.85	308.86	-485.92	172.06	361.12	-1035.1	719.03	127.17	-1006.2	628.36	183.7	-1075.4	639.64	147.86	-970.02	713.91	159.07	-1124	549.87	167.31	-1091	552.07	285.92	-1223.5	335.05	193.26	-1172.1	261.98	192.17	-1241.9	266.02	213.85	-1158.2	330.1	176.74	-1224.2	120.64	217.17	-1203.3	137.73	302.29	-1306.3	88.72	266.55	-1300.7	57.614	296.05	-1302.2	65.051	234.54	-1127.1	46.683	186.55	-1101.1	40.281	304.41	-1029.9	44.708	246.68	-1073.5	1538.1	266.84	-1135.4	1264	261.2
128	0.52917	-884.41	1277.9	285.55	-1025	1483.4	443.99	-1007.7	1482.8	93.919	-945.35	1797.9	269.1	-929.74	1043.1	405.02	-907.01	1040.3	152.3	-1119.2	1057.3	300.01	-1118.4	1065.6	220.44	-980.44	965.21	451.2	-1014.8	973.71	93.609	-1026.6	1113.2	432.21	-981.1	1113.8	112.95	-1134.7	1027.4	261.4	-894.54	732.45	446.01	-813.19	677.36	408.98	-873.96	646.82	424.71	-831.24	765.63	422.52	-810.64	556.19	413.89	-804.73	557.63	284.54	-786.45	328.6	416.22	-708.28	285.02	402.57	-766.56	253.74	403.59	-729.85	358.35	413.22	-691.23	134.58	384.72	-673.23	152.16	303.26	-726.63	68.445	330.57	-701.24	48.752	300.04	-707.04	40.121	363.84	-547.87	104.52	420.76	-523.23	139.05	308.62	-475.52	176.88	361.4	-1031.3	718.74	127.23	-1002.6	627.85	183.52	-1071.9	639.5	147.94	-966.11	713.29	158.88	-1120.8	549.93	167.43	-1087.5	551.85	285.94	-1221.7	335.65	193.46	-1170.7	262.25	192.29	-1240.4	266.76	214	-1156.3	330.31	176.87	-1223.7	121.23	217.25	-1202.6	138.22	302.36	-1306.1	89.696	266.63	-1300.5	58.509	296.14	-1301.9	65.95	234.62	-1127	46.734	186.58	-1100.9	40.342	304.41	-1029.8	44.597	246.66	-1068	1537.5	267.18	-1129.9	1263.4	261.49
129	0.53333	-878.91	1277.2	285.74	-1019.5	1482.7	444.34	-1002.2	1482.2	94.248	-939.76	1797.2	269.57	-924.14	1042.4	405.06	-901.75	1039.6	152.31	-1113.8	1056.8	300.38	-1112.7	1065	220.87	-974.99	964.51	451.33	-1009.9	973.16	93.778	-1021	1112.6	432.42	-975.9	1113.2	113.12	-1129.2	1026.8	261.8	-890.9	731.28	445.78	-809.19	675.88	408.8	-870.17	645.54	424.18	-826.92	764.12	422.59	-806.89	554.98	413.3	-800.54	556.74	283.82	-779.25	327.7	415.11	-700.27	285.36	401.68	-758.09	253.17	402.28	-723.1	358.35	412.46	-680.64	135.16	383.49	-662.42	153.39	302.2	-714.47	68.516	328.84	-688.56	49.48	298.3	-694.52	40.347	362.05	-536.86	107.41	420.2	-512.26	143.16	308.39	-465.51	181.56	361.7	-1027.4	718.46	127.28	-998.93	627.36	183.34	-1068.3	639.37	148.02	-962.14	712.69	158.7	-1117.5	550.01	167.56	-1083.9	551.62	285.96	-1219.8	336.28	193.65	-1169.3	262.56	192.41	-1238.9	267.55	214.14	-1154.4	330.53	176.99	-1223.1	121.86	217.32	-1201.9	138.74	302.43	-1305.8	90.734	266.69	-1300.2	59.473	296.21	-1301.6	66.911	234.68	-1126.9	46.787	186.6	-1100.8	40.411	304.41	-1029.6	44.49	246.63	-1062.5	1536.9	267.54	-1124.3	1262.8	261.8
